<svg width="25" height="24" viewBox="0 0 25 24" fill="none" xmlns="http://www.w3.org/2000/svg">
<path d="M2 12C2 6.063 6.813 1.25 12.75 1.25C18.687 1.25 23.5 6.063 23.5 12C23.5 17.937 18.687 22.75 12.75 22.75C6.813 22.75 2 17.937 2 12ZM12.75 21.25C17.859 21.25 22 17.109 22 12C22 6.891 17.859 2.75 12.75 2.75C7.641 2.75 3.5 6.891 3.5 12C3.5 17.109 7.641 21.25 12.75 21.25ZM12.241 11.751C12.172 11.75 12.091 11.75 11.992 11.75C11.578 11.75 11.242 11.414 11.242 11C11.242 10.586 11.578 10.25 11.992 10.25H12.027C12.232 10.25 12.453 10.25 12.641 10.275C12.86 10.304 13.14 10.38 13.376 10.616C13.612 10.852 13.688 11.132 13.717 11.351C13.742 11.539 13.742 11.76 13.742 11.965V17C13.742 17.414 13.406 17.75 12.992 17.75C12.578 17.75 12.242 17.414 12.242 17V12C12.242 11.901 12.242 11.821 12.241 11.751ZM12.742 7H12.751C13.304 7 13.751 7.448 13.751 8C13.751 8.552 13.304 9 12.751 9H12.742C12.19 9 11.742 8.552 11.742 8C11.742 7.448 12.19 7 12.742 7Z" fill="#777777"/>
</svg>
